# xmcd
# 
# Track frame offsets:
#     150
#     36217
#     62485
#     90196
#     112420
#     133768
#     149141
# 
# Disc length: 2235
# 
# Revision: 1
# Processed by: cddbd v1.5.2PL0 Copyright (c) Steve Scherf et al.
# Submitted via: fre:ac v1.0.17
# 
DISCID=6608b907
DTITLE=Dire Straits - Making Movies
DYEAR=1980
DGENRE=
TTITLE0=Tunnel of Love
TTITLE1=Romeo and Juliet
TTITLE2=Skateaway
TTITLE3=Expresso Love
TTITLE4=Hand in Hand
TTITLE5=Solid Rock
TTITLE6=Les Boys
EXTD=
EXTT0=
EXTT1=
EXTT2=
EXTT3=
EXTT4=
EXTT5=
EXTT6=
PLAYORDER=
